<svg xmlns="http://www.w3.org/2000/svg" viewBox="0 0 100 100">
  <circle cx="50" cy="50" r="48" fill="#f7931a"/>
  <path fill="#fff" d="M63.6 44.2c1.1-7.3-4.5-11.2-12.1-13.8l2.5-9.9-6-1.5-2.4 9.6c-1.6-.4-3.2-.8-4.8-1.2l2.4-9.7-6-1.5-2.5 9.9c-1.3-.3-2.6-.6-3.9-.9l-8.3-2.1-1.6 6.4s4.5 1 4.4 1.1c2.4.6 2.9 2.2 2.8 3.5l-2.8 11.3c.2 0 .4.1.6.2l-.6-.2-4 15.9c-.3.7-1 1.8-2.7 1.4.1.1-4.4-1.1-4.4-1.1l-3 6.8 7.8 2 4.3 1.1-2.5 10 6 1.5 2.5-9.9c1.6.4 3.2.8 4.7 1.2l-2.5 9.9 6 1.5 2.5-10c10.3 2 18.1.6 21.4-8.2 2.6-7-0.1-11-5.2-13.7 3.7-.8 6.5-3.2 7.2-8.1zm-12.9 18.1c-1.9 7.5-14.6 3.5-18.7 2.4l3.3-13.4c4.1 1 17.4 3.1 15.4 11zm1.9-18.2c-1.7 6.8-12.3 3.4-15.7 2.5l3-12.1c3.4.9 14.5 2.4 12.7 9.6z"/>
</svg>
